<?xml version="1.0" standalone="no"?>
<!DOCTYPE svg PUBLIC "-//W3C//DTD SVG 20010904//EN"
 "http://www.w3.org/TR/2001/REC-SVG-20010904/DTD/svg10.dtd">
<svg version="1.0" xmlns="http://www.w3.org/2000/svg"
 width="57.000000pt" height="64.000000pt" viewBox="0 0 57.000000 64.000000"
 preserveAspectRatio="xMidYMid meet">
<metadata>
Created by potrace 1.10, written by Peter Selinger 2001-2011
</metadata>
<g transform="translate(0.000000,64.000000) scale(0.100000,-0.100000)"
fill="#000000" stroke="none">
<path d="M244 548 c2 -46 8 -83 13 -83 4 1 34 5 66 9 l57 8 0 54 c0 60 -5 67
-20 28 -10 -26 -30 -25 -30 2 0 16 -16 19 -25 4 -11 -18 -21 -11 -34 25 -21
60 -33 41 -27 -47z m84 -20 c19 -19 14 -28 -17 -28 -27 0 -47 20 -34 34 10 10
38 7 51 -6z"/>
<path d="M10 543 c0 -22 3 -23 90 -23 87 0 90 1 90 23 0 21 -3 22 -90 22 -87
0 -90 -1 -90 -22z"/>
<path d="M435 562 c-3 -3 -5 -14 -5 -24 0 -15 8 -18 50 -18 l50 0 0 -241 0
-240 -22 3 c-17 2 -23 -2 -23 -17 0 -17 6 -19 35 -17 19 2 36 5 37 6 1 1 3
125 3 275 l1 272 -61 3 c-33 1 -62 0 -65 -2z"/>
<path d="M84 456 c-39 -32 -39 -89 -1 -121 l26 -23 -49 -12 -48 -12 -4 -64
c-3 -61 -2 -64 20 -64 20 0 22 5 22 48 l0 48 156 38 c123 30 154 41 150 53 -4
8 -9 32 -12 54 -6 39 -17 46 -42 31 -10 -7 -10 -15 -2 -37 6 -15 9 -29 8 -30
-5 -3 -85 -25 -91 -25 -4 0 -2 12 3 26 15 40 12 53 -19 85 -37 36 -79 38 -117
5z m92 -41 c16 -24 16 -27 -1 -45 -31 -34 -75 -19 -75 25 0 48 49 60 76 20z"/>
<path d="M175 250 c-3 -5 0 -28 7 -52 7 -25 9 -43 3 -45 -6 -2 -46 -19 -90
-37 -78 -31 -80 -33 -83 -69 -2 -28 1 -37 12 -37 8 0 16 9 18 20 2 17 34 33
153 80 83 33 153 60 157 60 4 0 13 -18 19 -40 9 -28 18 -40 31 -40 10 0 18 5
18 10 0 23 -35 130 -43 130 -4 0 -37 -14 -74 -30 -36 -17 -67 -29 -68 -28 -1
2 -7 22 -14 46 -11 40 -32 54 -46 32z"/>
<path d="M450 193 c0 -10 -3 -34 -6 -54 -5 -31 -3 -37 14 -41 24 -7 28 1 31
65 2 42 0 47 -18 47 -13 0 -21 -6 -21 -17z"/>
<path d="M310 115 c-11 -13 -9 -20 10 -40 21 -22 26 -23 38 -11 12 12 12 18
-4 40 -22 30 -27 31 -44 11z"/>
<path d="M183 42 c-107 -2 -133 -5 -133 -17 0 -20 270 -27 278 -7 9 24 -11 27
-145 24z"/>
</g>
</svg>
