<svg xmlns="http://www.w3.org/2000/svg" viewBox="0 0 659.38 199.28">
  <defs>
    <style>
      .cls-1 {
        font-size: 90.06px;
        font-family: MyriadPro-Regular, Myriad Pro;
      }

      .cls-1, .cls-2, .cls-3 {
        fill: #fff;
      }

      .cls-3 {
        stroke: #fff;
        stroke-miterlimit: 10;
        stroke-width: 0.88px;
      }
    </style>
  </defs>
  <g id="Layer_2" data-name="Layer 2">
    <g id="Layer_1-2" data-name="Layer 1">
      <g>
        <text class="cls-1" transform="translate(205.39 136.77)">ILLUSTRATE</text>
        <g>
          <path class="cls-2" d="M.51,192.18c0,2.29,0,4.58,0,6.61H.53v-9C.52,190.59.52,191.38.51,192.18Z"/>
          <path class="cls-3" d="M13.43,185.94l0-2.32,97.35-39.36,9.46,28.31,12.21-4.08-13.8-41.28L72.41,145.92l-8.09-28.37L52,121.08l8.46,29.69-47,19v16.19Z"/>
          <path class="cls-3" d="M111,94.45l-6.81-32.36,0-.2,0,.2,0-.2v0l0-.06,0-.21L91.25,64l4.58,21-33.1,8.48a26.89,26.89,0,1,0-28.21,7.24l-21.09,5.42v13.27ZM28.54,75.29A14.47,14.47,0,1,1,43,89.76,14.47,14.47,0,0,1,28.54,75.29Z"/>
          <path class="cls-3" d="M.49,109.54v5c0,7.63-.08,31.33,0,33.54h0V109.53Z"/>
          <rect class="cls-3" x="0.53" y="21.95" width="58.65" height="12.9"/>
          <path class="cls-3" d="M100.87,185.94v12.9H.53v-.06H13.34c0-3.44,0-8.05.1-12.84Z"/>
          <polygon class="cls-2" points="177.42 21.95 177.42 198.84 152.07 198.84 152.07 185.94 164.52 185.94 164.52 34.85 135.94 34.85 135.94 21.95 177.42 21.95"/>
          <path class="cls-3" d="M13.43,185.94h0V169.75L.73,174.89l-.07,4.26s-.08,5-.13,10.66v9H13.34C13.34,195.35,13.38,190.73,13.43,185.94Z"/>
          <path class="cls-3" d="M13.33,119.52l.1,0V106.22L.53,109.53v38.53l12.81-.51C13.28,145.86,13.31,137.28,13.33,119.52Z"/>
          <line class="cls-3" x1="22.17" y1="34.85" x2="13.44" y2="34.85"/>
          <rect class="cls-2" x="97.73" y="160.89" width="12.9" height="20.2" transform="translate(-84.03 102.66) rotate(-38.69)"/>
          <rect class="cls-2" x="128.22" y="144.85" width="34.86" height="12.9" transform="translate(-18.92 281.78) rotate(-84.5)"/>
        </g>
        <polygon class="cls-2" points="76.27 0 76.69 54.03 118.86 47.61 118.36 13.67 106.74 32.61 100.18 16.37 90.59 25.35 76.27 0"/>
        <path class="cls-2" d="M100.18,16.37l-9.59,9s16.08,7.47,16.15,7.26S100.18,16.37,100.18,16.37Z"/>
        <polygon class="cls-2" points="118.36 13.67 106.74 32.61 118.71 37.3 118.36 13.67"/>
        <polygon class="cls-2" points="76.27 0 76.5 30.24 90.59 25.35 76.27 0"/>
      </g>
    </g>
  </g>
</svg>
