<svg xmlns="http://www.w3.org/2000/svg" xmlns:xlink="http://www.w3.org/1999/xlink" viewBox="0 0 56.07 62.99"><defs><style>.cls-1{fill:#333;}.cls-2{fill:#ffd400;}.cls-3{fill:url(#linear-gradient);}.cls-4{fill:url(#linear-gradient-2);}.cls-5{fill:url(#linear-gradient-3);}</style><linearGradient id="linear-gradient" x1="31.36" y1="7.69" x2="31.58" y2="6.37" gradientUnits="userSpaceOnUse"><stop offset="0" stop-color="#ffd400"/><stop offset="1" stop-color="#fa0"/></linearGradient><linearGradient id="linear-gradient-2" x1="36.07" y1="8.07" x2="36.4" y2="6.02" xlink:href="#linear-gradient"/><linearGradient id="linear-gradient-3" x1="26.06" y1="5.4" x2="26.5" y2="2.77" xlink:href="#linear-gradient"/></defs><g id="Layer_2" data-name="Layer 2"><g id="Layer_1-2" data-name="Layer 1"><path class="cls-1" d="M0,60.88c0,.73,0,1.46,0,2.1H0V60.13C0,60.38,0,60.63,0,60.88Z"/><path class="cls-1" d="M4.12,58.91c0-.25,0-.49,0-.74L35,45.7l3,9,3.87-1.29L37.46,40.3,22.8,46.23l-2.56-9-3.92,1.12L19,47.76l-14.88,6v5.13Z"/><path class="cls-1" d="M35,29.92,32.88,19.67l0-.06,0,.06,0-.06v0l0-.06-4.07.78L30.22,27,19.73,29.64a8.52,8.52,0,1,0-8.93,2.29L4.12,33.65v4.21ZM8.9,23.85a4.59,4.59,0,1,1,4.59,4.59A4.59,4.59,0,0,1,8.9,23.85Z"/><path class="cls-1" d="M0,34.7v1.58C0,38.7,0,46.2,0,46.91H0V34.7Z"/><rect class="cls-1" x="0.03" y="6.95" width="18.58" height="4.09"/><path class="cls-1" d="M31.82,58.91V63H4.09c0-1.09,0-2.56,0-4.07Z"/><polygon class="cls-1" points="56.07 6.95 56.07 62.99 48.04 62.99 48.04 58.91 51.98 58.91 51.98 11.04 42.93 11.04 42.93 6.95 56.07 6.95"/><path class="cls-1" d="M4.12,58.91h0V53.78l-4,1.62,0,1.36s0,1.58,0,3.37V63H4.09C4.09,61.89,4.1,60.42,4.12,58.91Z"/><path class="cls-1" d="M4.08,37.86h0V33.65L0,34.7V46.91l4.06-.17C4.07,46.21,4.08,43.49,4.08,37.86Z"/><line class="cls-1" x1="6.89" y1="11.04" x2="4.12" y2="11.04"/><rect class="cls-1" x="30.82" y="50.97" width="4.09" height="6.4" transform="translate(-26.65 32.43) rotate(-38.69)"/><rect class="cls-1" x="40.48" y="45.89" width="11.05" height="4.09" transform="translate(-6.12 89.13) rotate(-84.5)"/><polygon class="cls-2" points="24.02 0 24.16 17.12 37.52 15.08 37.36 4.33 33.68 10.33 31.6 5.18 28.56 8.03 24.02 0"/><path class="cls-3" d="M31.6,5.19,28.56,8s5.09,2.37,5.12,2.3S31.6,5.19,31.6,5.19Z"/><polygon class="cls-4" points="37.36 4.33 33.68 10.33 37.47 11.82 37.36 4.33"/><polygon class="cls-5" points="24.02 0 24.1 9.58 28.56 8.03 24.02 0"/></g></g></svg>